Coordinates
version=1
nRows=10
nColumns=33
inDegrees=yes

Units are S.I. units (second, meters, Newtons, ...)
Angles are in degrees.

endheader
time	ground_thorax_rot_x	ground_thorax_rot_y	ground_thorax_rot_z	ground_thorax_tx	ground_thorax_ty	ground_thorax_tz	clav_prot_r	clav_elev_r	scapula_abduction_r	scapula_elevation_r	scapula_upward_rot_r	scapula_winging_r	shoulder_elv_r	plane_of_elev_r	axial_rot_r	elbow_flexion_r	pro_sup_r	wrist_flex_r	wrist_dev_r	clav_prot_l	clav_elev_l	scapula_abduction_l	scapula_elevation_l	scapula_upward_rot_l	scapula_winging_l	shoulder_elv_l	plane_of_elev_l	axial_rot_l	elbow_flexion_l	pro_sup_l	wrist_flex_l	wrist_dev_l
      8.22000000	    -39.63590069	    -12.92903893	     17.20049123	   -240.49047889	    833.64086604	      5.08796660	     10.19967658	    -40.79373616	     31.06841599	    -45.00000000	     28.20562540	   2871.03390257	  -1572.28260200	    -90.00000000	    -82.39728649	   1805.39216879	    219.07875946	     17.22970633	     12.76934063	     14.78649092	     38.32544274	    -36.61603217	    -45.00000000	    -45.00000000	  -2071.34242411	     71.50411668	     24.96627450	    -12.35861864	   1088.04068645	     24.06376399	      7.50166633	    -22.86458642
      8.23000000	    -39.58564836	    -12.93013184	     17.29232610	   -240.97791691	    833.06991525	      5.19260553	     10.17576916	    -40.81724433	     31.01209147	    -45.00000000	     28.12402593	   2870.97039215	  -1572.33009783	    -90.00000000	    -82.33727150	   1805.34556743	    219.38486033	     17.41120223	     12.77021726	     14.58829733	     38.35438688	    -36.40908966	    -45.00000000	    -45.00000000	  -2071.54939285	     71.59311464	     24.93197904	    -11.95825769	   1088.05844366	     23.85602595	      7.78875545	    -22.99049942
      8.24000000	    -39.50921957	    -13.06796152	     17.50242683	   -241.15540001	    832.46295577	      5.27998850	     10.25961966	    -40.85507487	     30.99209299	    -45.00000000	     27.81599534	   2871.02904579	  -1572.36173849	    -90.00000000	    -82.29567462	   1805.36093150	    219.62098708	     17.46407993	     12.75424022	     14.72280254	     38.11761392	    -36.23842993	    -45.00000000	    -45.00000000	  -2071.60353152	     71.49834413	     25.07641969	    -11.56875380	   1087.85493240	     23.66546593	      7.62763893	    -22.84715991
      8.25000000	    -39.48750289	    -13.09134541	     17.66728902	   -241.06726979	    831.82431933	      5.35010067	     10.39605494	    -40.88725560	     31.10262323	    -45.00000000	     27.82779359	   2870.89275563	  -1572.32293938	    -90.00000000	    -82.32436377	   1805.31410228	    219.85427956	     17.63117824	     12.79726494	     14.63398002	     38.23537505	    -36.30010211	    -45.00000000	    -45.00000000	  -2071.67783340	     71.56079447	     24.96270897	    -11.37832724	   1087.99359865	     23.56045058	      7.74234412	    -22.94206423
      8.26000000	    -39.45336121	    -13.29462921	     17.85144250	   -240.76763119	    831.17045881	      5.40256504	     10.40378103	    -40.85679676	     31.09540249	    -45.00000000	     27.78544859	   2870.86752442	  -1572.32644019	    -90.00000000	    -82.31095885	   1805.26659794	    220.08746260	     17.72365765	     12.78366735	     14.72949459	     38.05698753	    -36.09710632	    -45.00000000	    -45.00000000	  -2071.66741819	     71.48784391	     25.11131542	    -11.28263316	   1087.92699243	     23.50608793	      7.58937186	    -22.88186915
      8.27000000	    -39.44639546	    -13.32957778	     18.00074323	   -240.31571411	    830.50710284	      5.43842854	     10.48740873	    -40.89411839	     31.15810432	    -45.00000000	     27.81354375	   2870.77916854	  -1572.35354229	    -90.00000000	    -82.27376244	   1805.22025896	    220.31480114	     17.86632809	     12.80943016	     14.64016609	     38.21903321	    -36.21675600	    -45.00000000	    -45.00000000	  -2071.79349214	     71.54547059	     24.94913935	    -11.22659492	   1088.05732375	     23.53026332	      7.55574395	    -22.93064222
      8.28000000	    -39.41204157	    -13.49609067	     18.16330270	   -239.77582592	    829.85579324	      5.45688142	     10.46020273	    -40.84434607	     31.20343980	    -45.00000000	     27.84045561	   2870.76725824	  -1572.41072499	    -90.00000000	    -82.20632335	   1805.16986929	    220.53215506	     17.96183864	     12.80491676	     14.74010348	     38.04602209	    -36.09821480	    -45.00000000	    -45.00000000	  -2071.75850091	     71.49297650	     25.14921723	    -11.18512813	   1088.03105911	     23.61334841	      7.38524524	    -22.88740546
      8.29000000	    -39.40227279	    -13.66568573	     18.31099213	   -239.20374143	    829.23370906	      5.45749923	     10.52543951	    -40.88096393	     31.32828889	    -45.00000000	     27.84203846	   2870.71773386	  -1572.47296307	    -90.00000000	    -82.13416289	   1805.08468365	    220.71276142	     18.06312884	     12.80622756	     14.59031430	     38.19402635	    -36.01626792	    -45.00000000	    -45.00000000	  -2071.94466532	     71.67971615	     25.02861617	    -11.05869712	   1088.13095123	     23.74180532	      7.26604700	    -22.90301261
      8.30000000	    -39.43590769	    -13.75531342	     18.39690828	   -238.64765309	    828.66290092	      5.43988560	     10.56477890	    -40.84377967	     31.28807727	    -45.00000000	     27.88168404	   2870.71361900	  -1572.54527547	    -90.00000000	    -82.05184827	   1805.05048643	    220.87421819	     18.13636768	     12.82131546	     14.67737893	     38.00700242	    -36.09876655	    -45.00000000	    -45.00000000	  -2071.82986458	     71.54440730	     25.21925823	    -10.94925984	   1088.09616047	     23.93465292	      7.12975639	    -22.87165389
      8.31000000	    -39.49168804	    -13.86050914	     18.44453186	   -238.14063517	    828.16186403	      5.40461277	     10.51430501	    -40.86488821	     31.33451305	    -45.00000000	     27.91502899	   2870.66936914	  -1572.58911896	    -90.00000000	    -81.99797454	   1804.98791101	    221.00028187	     18.18634694	     12.82929261	     14.66737306	     38.25504281	    -36.12894430	    -45.00000000	    -45.00000000	  -2071.95756336	     71.67231059	     25.09888915	    -10.81577774	   1088.19787042	     24.15806087	      7.02277698	    -22.90185119
